<mxfile host="app.diagrams.net" agent="Mozilla/5.0 (Windows NT 10.0; Win64; x64) AppleWebKit/537.36 (KHTML, like Gecko) Chrome/141.0.0.0 Safari/537.36" version="28.2.7">
  <diagram name="Page-1" id="S8tuXIqve_KqgAu0fcvP">
    <mxGraphModel dx="1426" dy="863" grid="1" gridSize="10" guides="1" tooltips="1" connect="1" arrows="1" fold="1" page="1" pageScale="1" pageWidth="850" pageHeight="1100" math="1" shadow="0">
      <root>
        <mxCell id="0" />
        <mxCell id="1" parent="0" />
        <mxCell id="IJmZggZovkUzVdCnAwnD-2" value="Start Episode" style="ellipse;whiteSpace=wrap;html=1;fillColor=#d5e8d4;strokeColor=#82b366;" vertex="1" parent="1">
          <mxGeometry x="340" y="40" width="120" height="60" as="geometry" />
        </mxCell>
        <mxCell id="IJmZggZovkUzVdCnAwnD-3" value="Initialize:&#xa;x₀, residual = |Ax₀-b|&#xa;State s₀" style="rounded=1;whiteSpace=wrap;html=1;fillColor=#dae8fc;strokeColor=#6c8ebf;" vertex="1" parent="1">
          <mxGeometry x="320" y="140" width="160" height="70" as="geometry" />
        </mxCell>
        <mxCell id="IJmZggZovkUzVdCnAwnD-4" value="DQN selects action:&#xa;Relaxation parameter ω" style="rounded=1;whiteSpace=wrap;html=1;fillColor=#dae8fc;strokeColor=#6c8ebf;" vertex="1" parent="1">
          <mxGeometry x="320" y="250" width="160" height="60" as="geometry" />
        </mxCell>
        <mxCell id="IJmZggZovkUzVdCnAwnD-5" value="Execute iteration&#xa;with ω&#xa;Track n_iter" style="rounded=1;whiteSpace=wrap;html=1;fillColor=#dae8fc;strokeColor=#6c8ebf;" vertex="1" parent="1">
          <mxGeometry x="320" y="350" width="160" height="60" as="geometry" />
        </mxCell>
        <mxCell id="IJmZggZovkUzVdCnAwnD-6" value="Update:&#xa;x_{t+1}, residual = |Ax-b|&#xa;State s_{t+1}" style="rounded=1;whiteSpace=wrap;html=1;fillColor=#dae8fc;strokeColor=#6c8ebf;" vertex="1" parent="1">
          <mxGeometry x="320" y="450" width="160" height="70" as="geometry" />
        </mxCell>
        <mxCell id="IJmZggZovkUzVdCnAwnD-7" value="Compute Reward:&#xa;r = -n_iter" style="rounded=1;whiteSpace=wrap;html=1;fillColor=#fff2cc;strokeColor=#d6b656;" vertex="1" parent="1">
          <mxGeometry x="320" y="560" width="160" height="60" as="geometry" />
        </mxCell>
        <mxCell id="IJmZggZovkUzVdCnAwnD-8" value="residual ≤&#xa;target tolerance?" style="rhombus;whiteSpace=wrap;html=1;fillColor=#ffe6cc;strokeColor=#d79b00;" vertex="1" parent="1">
          <mxGeometry x="320" y="660" width="160" height="80" as="geometry" />
        </mxCell>
        <mxCell id="IJmZggZovkUzVdCnAwnD-9" value="Store transition:&#xa;(s_t, ω, r, s_{t+1}, done)" style="rounded=1;whiteSpace=wrap;html=1;fillColor=#e1d5e7;strokeColor=#9673a6;" vertex="1" parent="1">
          <mxGeometry x="320" y="780" width="160" height="60" as="geometry" />
        </mxCell>
        <mxCell id="IJmZggZovkUzVdCnAwnD-10" value="Sample mini-batch&#xa;Train DQN&#xa;(Update Q-network)" style="rounded=1;whiteSpace=wrap;html=1;fillColor=#f8cecc;strokeColor=#b85450;" vertex="1" parent="1">
          <mxGeometry x="320" y="880" width="160" height="70" as="geometry" />
        </mxCell>
        <mxCell id="IJmZggZovkUzVdCnAwnD-11" value="Episode Complete" style="ellipse;whiteSpace=wrap;html=1;fillColor=#d5e8d4;strokeColor=#82b366;" vertex="1" parent="1">
          <mxGeometry x="340" y="990" width="120" height="60" as="geometry" />
        </mxCell>
        <mxCell id="IJmZggZovkUzVdCnAwnD-12" value="t = t + 1" style="rounded=1;whiteSpace=wrap;html=1;fillColor=#f5f5f5;strokeColor=#666666;" vertex="1" parent="1">
          <mxGeometry x="560" y="670" width="100" height="40" as="geometry" />
        </mxCell>
        <mxCell id="IJmZggZovkUzVdCnAwnD-13" style="edgeStyle=orthogonalEdgeStyle;rounded=0;orthogonalLoop=1;jettySize=auto;html=1;exitX=0.5;exitY=1;exitDx=0;exitDy=0;entryX=0.5;entryY=0;entryDx=0;entryDy=0;" edge="1" parent="1" source="IJmZggZovkUzVdCnAwnD-2" target="IJmZggZovkUzVdCnAwnD-3">
          <mxGeometry relative="1" as="geometry" />
        </mxCell>
        <mxCell id="IJmZggZovkUzVdCnAwnD-14" style="edgeStyle=orthogonalEdgeStyle;rounded=0;orthogonalLoop=1;jettySize=auto;html=1;exitX=0.5;exitY=1;exitDx=0;exitDy=0;entryX=0.5;entryY=0;entryDx=0;entryDy=0;" edge="1" parent="1" source="IJmZggZovkUzVdCnAwnD-3" target="IJmZggZovkUzVdCnAwnD-4">
          <mxGeometry relative="1" as="geometry" />
        </mxCell>
        <mxCell id="IJmZggZovkUzVdCnAwnD-15" style="edgeStyle=orthogonalEdgeStyle;rounded=0;orthogonalLoop=1;jettySize=auto;html=1;exitX=0.5;exitY=1;exitDx=0;exitDy=0;entryX=0.5;entryY=0;entryDx=0;entryDy=0;" edge="1" parent="1" source="IJmZggZovkUzVdCnAwnD-4" target="IJmZggZovkUzVdCnAwnD-5">
          <mxGeometry relative="1" as="geometry" />
        </mxCell>
        <mxCell id="IJmZggZovkUzVdCnAwnD-16" style="edgeStyle=orthogonalEdgeStyle;rounded=0;orthogonalLoop=1;jettySize=auto;html=1;exitX=0.5;exitY=1;exitDx=0;exitDy=0;entryX=0.5;entryY=0;entryDx=0;entryDy=0;" edge="1" parent="1" source="IJmZggZovkUzVdCnAwnD-5" target="IJmZggZovkUzVdCnAwnD-6">
          <mxGeometry relative="1" as="geometry" />
        </mxCell>
        <mxCell id="IJmZggZovkUzVdCnAwnD-17" style="edgeStyle=orthogonalEdgeStyle;rounded=0;orthogonalLoop=1;jettySize=auto;html=1;exitX=0.5;exitY=1;exitDx=0;exitDy=0;entryX=0.5;entryY=0;entryDx=0;entryDy=0;" edge="1" parent="1" source="IJmZggZovkUzVdCnAwnD-6" target="IJmZggZovkUzVdCnAwnD-7">
          <mxGeometry relative="1" as="geometry" />
        </mxCell>
        <mxCell id="IJmZggZovkUzVdCnAwnD-18" style="edgeStyle=orthogonalEdgeStyle;rounded=0;orthogonalLoop=1;jettySize=auto;html=1;exitX=0.5;exitY=1;exitDx=0;exitDy=0;entryX=0.5;entryY=0;entryDx=0;entryDy=0;" edge="1" parent="1" source="IJmZggZovkUzVdCnAwnD-7" target="IJmZggZovkUzVdCnAwnD-8">
          <mxGeometry relative="1" as="geometry" />
        </mxCell>
        <mxCell id="IJmZggZovkUzVdCnAwnD-19" style="edgeStyle=orthogonalEdgeStyle;rounded=0;orthogonalLoop=1;jettySize=auto;html=1;exitX=0.5;exitY=1;exitDx=0;exitDy=0;entryX=0.5;entryY=0;entryDx=0;entryDy=0;" edge="1" parent="1" source="IJmZggZovkUzVdCnAwnD-8" target="IJmZggZovkUzVdCnAwnD-9">
          <mxGeometry relative="1" as="geometry" />
        </mxCell>
        <mxCell id="IJmZggZovkUzVdCnAwnD-20" value="Yes" style="edgeLabel;html=1;align=center;verticalAlign=middle;resizable=0;points=[];" vertex="1" connectable="0" parent="IJmZggZovkUzVdCnAwnD-19">
          <mxGeometry x="-0.2" y="1" relative="1" as="geometry">
            <mxPoint as="offset" />
          </mxGeometry>
        </mxCell>
        <mxCell id="IJmZggZovkUzVdCnAwnD-21" style="edgeStyle=orthogonalEdgeStyle;rounded=0;orthogonalLoop=1;jettySize=auto;html=1;exitX=1;exitY=0.5;exitDx=0;exitDy=0;entryX=0;entryY=0.5;entryDx=0;entryDy=0;" edge="1" parent="1" source="IJmZggZovkUzVdCnAwnD-8" target="IJmZggZovkUzVdCnAwnD-12">
          <mxGeometry relative="1" as="geometry" />
        </mxCell>
        <mxCell id="IJmZggZovkUzVdCnAwnD-22" value="No" style="edgeLabel;html=1;align=center;verticalAlign=middle;resizable=0;points=[];" vertex="1" connectable="0" parent="IJmZggZovkUzVdCnAwnD-21">
          <mxGeometry x="-0.2" y="1" relative="1" as="geometry">
            <mxPoint as="offset" />
          </mxGeometry>
        </mxCell>
        <mxCell id="IJmZggZovkUzVdCnAwnD-23" style="edgeStyle=orthogonalEdgeStyle;rounded=0;orthogonalLoop=1;jettySize=auto;html=1;exitX=0.5;exitY=0;exitDx=0;exitDy=0;entryX=1;entryY=0.5;entryDx=0;entryDy=0;" edge="1" parent="1" source="IJmZggZovkUzVdCnAwnD-12" target="IJmZggZovkUzVdCnAwnD-4">
          <mxGeometry relative="1" as="geometry">
            <Array as="points">
              <mxPoint x="610" y="280" />
            </Array>
          </mxGeometry>
        </mxCell>
        <mxCell id="IJmZggZovkUzVdCnAwnD-24" style="edgeStyle=orthogonalEdgeStyle;rounded=0;orthogonalLoop=1;jettySize=auto;html=1;exitX=0.5;exitY=1;exitDx=0;exitDy=0;entryX=0.5;entryY=0;entryDx=0;entryDy=0;" edge="1" parent="1" source="IJmZggZovkUzVdCnAwnD-9" target="IJmZggZovkUzVdCnAwnD-10">
          <mxGeometry relative="1" as="geometry" />
        </mxCell>
        <mxCell id="IJmZggZovkUzVdCnAwnD-25" style="edgeStyle=orthogonalEdgeStyle;rounded=0;orthogonalLoop=1;jettySize=auto;html=1;exitX=0.5;exitY=1;exitDx=0;exitDy=0;entryX=0.5;entryY=0;entryDx=0;entryDy=0;" edge="1" parent="1" source="IJmZggZovkUzVdCnAwnD-10" target="IJmZggZovkUzVdCnAwnD-11">
          <mxGeometry relative="1" as="geometry" />
        </mxCell>
      </root>
    </mxGraphModel>
  </diagram>
</mxfile>
